<svg height="596" width="2500" xmlns="http://www.w3.org/2000/svg" viewBox="0 0 800 190.804"><path d="M187.888 178.12H143.52l-13.573-32.735H56.003L43.637 178.12H0L66.667 12.776h47.761zM91.155 52.285L66.912 116.53h50.913zM349.056 12.776h35.88V178.12h-41.219V74.842l-44.608 51.878h-6.301l-44.605-51.878V178.12h-41.219V12.776h35.88l53.093 61.336zM489.375 12.776c60.364 0 91.391 37.573 91.391 82.909 0 47.517-30.058 82.435-96 82.435h-68.369V12.776zm-31.762 135.039h26.906c41.457 0 53.823-28.127 53.823-52.375 0-28.368-15.276-52.363-54.308-52.363h-26.422v104.738z"/><g fill="#00a76d"><path d="M748.028 51.981h-85.259L610.797 0H800v189.21l-51.972-51.975zM662.708 137.296V62.397L609.2 115.901v74.903h74.889l53.505-53.508z"/></g></svg>