<svg viewBox="0 0 512 512" xmlns="http://www.w3.org/2000/svg" fill-rule="evenodd" clip-rule="evenodd" stroke-linejoin="round" stroke-miterlimit="2"><g fill-rule="nonzero"><path d="M52.091 10.225h40.684L50.541 135.361a6.5 6.5 0 01-6.146 4.412H12.732c-3.553 0-6.477-2.923-6.477-6.476 0-.704.115-1.403.34-2.07L45.944 14.638a6.501 6.501 0 016.147-4.415v.002z" fill="url(#prefix___Linear1)" transform="translate(2.076 1.626) scale(3.37462)"/><path d="M377.371 319.374H159.644c-5.527 0-10.076 4.549-10.076 10.077 0 2.794 1.164 5.466 3.206 7.37l139.901 130.577a21.986 21.986 0 0015.004 5.91H430.96l-53.589-153.934z" fill="#0078d4"/><path d="M52.091 10.225a6.447 6.447 0 00-6.161 4.498L6.644 131.12a6.457 6.457 0 00-.38 2.185c0 3.548 2.92 6.468 6.469 6.468H45.23a6.95 6.95 0 005.328-4.531l7.834-23.089 27.985 26.102a6.622 6.622 0 004.165 1.518h36.395l-15.962-45.615-46.533.011 28.48-83.944H52.091z" fill="url(#prefix___Linear2)" transform="translate(2.076 1.626) scale(3.37462)"/><path d="M104.055 14.631a6.492 6.492 0 00-6.138-4.406H52.575a6.493 6.493 0 016.138 4.406l39.35 116.594c.225.668.34 1.367.34 2.072 0 3.554-2.924 6.478-6.478 6.478h45.344c3.553-.001 6.476-2.925 6.476-6.478 0-.705-.115-1.404-.34-2.072l-39.35-116.594z" fill="url(#prefix___Linear3)" transform="translate(2.076 1.626) scale(3.37462)"/></g><defs><linearGradient id="prefix___Linear1" x1="0" y1="0" x2="1" y2="0" gradientUnits="userSpaceOnUse" gradientTransform="rotate(108.701 26.35 33.911) scale(131.7791)"><stop offset="0" stop-color="#114a8b"/><stop offset="1" stop-color="#0669bc"/></linearGradient><linearGradient id="prefix___Linear2" x1="0" y1="0" x2="1" y2="0" gradientUnits="userSpaceOnUse" gradientTransform="rotate(161.318 33.644 45.587) scale(10.31703)"><stop offset="0" stop-opacity=".3"/><stop offset=".07" stop-opacity=".2"/><stop offset=".32" stop-opacity=".1"/><stop offset=".62" stop-opacity=".05"/><stop offset="1" stop-opacity="0"/></linearGradient><linearGradient id="prefix___Linear3" x1="0" y1="0" x2="1" y2="0" gradientUnits="userSpaceOnUse" gradientTransform="rotate(69.426 25.69 62.036) scale(131.9816)"><stop offset="0" stop-color="#3ccbf4"/><stop offset="1" stop-color="#2892df"/></linearGradient></defs></svg>