<svg version="1.1" id="Layer_1" xmlns="http://www.w3.org/2000/svg" xmlns:xlink="http://www.w3.org/1999/xlink" x="0px" y="0px"
	 width="100%" viewBox="0 0 300 273" enable-background="new 0 0 300 273" xml:space="preserve">
<path fill="#EE792F" opacity="1.000000" stroke="none" 
	d="
M301.000000,110.000000 
	C301.000000,128.020889 301.000000,146.041794 300.531372,164.526184 
	C282.082703,164.986252 264.102692,164.982819 245.651825,164.901123 
	C237.568008,164.809296 229.954147,164.731293 222.342850,164.836990 
	C220.836960,164.857880 219.340851,165.584671 217.381638,165.990906 
	C208.977036,166.020401 201.031052,166.044922 192.698776,165.894501 
	C190.188416,165.479446 188.065109,165.039246 185.940140,165.031067 
	C169.666397,164.968460 153.392303,164.989944 136.647003,164.904892 
	C128.564346,164.810486 120.952103,164.732040 113.342407,164.837265 
	C111.836708,164.858078 110.340767,165.584778 108.381706,165.991013 
	C99.976616,166.020966 92.030144,166.045868 83.697647,165.895218 
	C81.198486,165.474503 79.086159,165.024963 76.972084,165.016586 
	C60.778484,164.952560 44.584541,164.974380 28.297585,164.511383 
	C28.226967,147.042801 28.249472,130.032333 28.452873,112.809586 
	C28.784655,112.062416 28.935535,111.527542 29.492393,110.919647 
	C32.354630,110.571167 34.810478,110.060226 37.267208,110.055977 
	C68.638901,110.001778 100.010757,110.042404 131.382385,109.973152 
	C133.619141,109.968216 135.854431,109.292702 138.552734,108.954803 
	C147.290176,108.991638 155.565277,109.002670 164.072556,109.398720 
	C173.199142,109.845749 182.093552,109.907761 191.194427,110.053650 
	C191.936447,110.107147 192.472000,110.076767 193.475708,110.041077 
	C229.629227,110.023842 265.314606,110.011925 301.000000,110.000000 
z"/>
<path fill="#47704C" opacity="1.000000" stroke="none" 
	d="
M193.085052,166.069458 
	C201.031052,166.044922 208.977036,166.020401 217.438232,166.455246 
	C217.968948,202.609741 217.984467,238.304871 218.000000,274.000000 
	C173.645767,274.000000 129.291550,274.000000 84.468643,273.531342 
	C83.942741,255.056702 83.885513,237.050720 83.890228,218.575378 
	C83.996002,200.760941 84.039841,183.415848 84.083679,166.070755 
	C92.030144,166.045868 99.976616,166.020966 108.438248,166.455353 
	C108.953407,184.482697 108.953407,202.050720 108.953407,219.852020 
	C118.977844,219.852020 128.111954,219.852020 137.698303,219.885437 
	C156.247864,219.918854 174.345200,219.918854 193.085052,219.918854 
	C193.085052,201.613083 193.085052,183.841263 193.085052,166.069458 
z"/>
<path fill="#47704C" opacity="1.000000" stroke="none" 
	d="
M163.840363,109.013702 
	C155.565277,109.002670 147.290176,108.991638 138.518463,108.490707 
	C138.021820,90.471489 138.021820,72.942177 138.021820,54.935349 
	C119.540627,54.935349 101.805611,54.935349 84.043388,54.471458 
	C84.010788,36.338379 84.005394,18.669189 84.000000,1.000000 
	C128.354233,1.000000 172.708450,1.000000 217.531250,1.468657 
	C217.948639,19.634045 217.897430,37.330772 217.387329,55.017265 
	C208.948364,55.060349 200.968292,55.113670 192.704834,55.131294 
	C192.231049,55.100651 192.040680,55.105701 191.391205,55.094177 
	C182.066193,55.077595 173.200302,55.077595 163.840363,55.077595 
	C163.840363,73.590614 163.840363,91.302162 163.840363,109.013702 
z"/>
<path fill="#000000" opacity="1.000000" stroke="none" 
	d="
M28.271976,113.021873 
	C28.249472,130.032333 28.226967,147.042801 28.205566,164.973923 
	C28.268314,183.592285 28.329954,201.289963 28.300753,219.448853 
	C28.139940,237.940048 28.069969,255.970016 28.000000,274.000000 
	C19.012054,274.000000 10.024108,274.000000 1.042465,274.000000 
	C1.048768,182.999985 1.048768,91.999985 1.048768,1.000000 
	C9.752583,1.000000 18.407629,1.000000 27.597200,1.464637 
	C28.181238,19.981585 28.230753,38.033894 28.229061,56.002193 
	C28.177853,55.918182 28.004076,56.010494 27.755812,56.059586 
	C27.677170,56.396851 27.846790,56.685020 28.074474,57.440445 
	C28.124731,75.597527 28.116928,93.287346 27.842669,111.059143 
	C27.808132,111.768028 28.040054,112.394951 28.271976,113.021873 
z"/>
<path fill="#F2A73B" opacity="1.000000" stroke="none" 
	d="
M192.988235,55.166985 
	C200.968292,55.113670 208.948364,55.060349 217.642715,55.377937 
	C227.722656,55.520695 237.088287,55.292542 246.799774,55.241089 
	C249.116119,55.600426 251.086105,55.935013 253.057220,55.941692 
	C269.038025,55.995872 285.019043,55.988567 301.000000,56.000000 
	C301.000000,73.687561 301.000000,91.375122 301.000000,109.531342 
	C265.314606,110.011925 229.629227,110.023842 193.456848,109.689133 
	C192.574692,108.536957 192.179520,107.731430 191.825592,106.463608 
	C191.940918,89.333412 192.015015,72.665512 192.262177,55.885956 
	C192.649918,55.599499 192.834259,55.397060 192.988235,55.166985 
z"/>
<path fill="#EA3326" opacity="1.000000" stroke="none" 
	d="
M28.468658,274.000000 
	C28.069969,255.970016 28.139940,237.940048 28.743713,219.454529 
	C47.461109,219.014221 65.644699,219.029480 83.828293,219.044739 
	C83.885513,237.050720 83.942741,255.056702 83.999985,273.531342 
	C65.645775,274.000000 47.291542,274.000000 28.468658,274.000000 
z"/>
<path fill="#F7D046" opacity="1.000000" stroke="none" 
	d="
M28.280268,56.086205 
	C28.230753,38.033894 28.181238,19.981585 28.065863,1.464637 
	C46.354229,1.000000 64.708458,1.000000 83.531342,1.000000 
	C84.005394,18.669189 84.010788,36.338379 83.655945,54.638802 
	C81.176186,55.501892 79.057777,55.923069 76.936974,55.935497 
	C60.718334,56.030556 44.499229,56.046001 28.280268,56.086205 
z"/>
<path fill="#000000" opacity="1.000000" stroke="none" 
	d="
M218.468658,274.000000 
	C217.984467,238.304871 217.968948,202.609741 217.896835,166.450272 
	C219.340851,165.584671 220.836960,164.857880 222.342850,164.836990 
	C229.954147,164.731293 237.568008,164.809296 245.703705,165.367889 
	C246.331345,183.938354 246.436249,201.963806 246.434830,220.446976 
	C246.219025,238.603134 246.109512,256.301575 246.000000,274.000000 
	C236.979111,274.000000 227.958206,274.000000 218.468658,274.000000 
z"/>
<path fill="#F7D046" opacity="1.000000" stroke="none" 
	d="
M301.000000,55.531342 
	C285.019043,55.988567 269.038025,55.995872 253.057220,55.941692 
	C251.086105,55.935013 249.116119,55.600426 246.719543,54.773125 
	C246.195663,36.418976 246.097824,18.709488 246.000000,1.000000 
	C264.260101,1.000000 282.520233,1.000000 301.000000,1.000000 
	C301.000000,19.020300 301.000000,37.041492 301.000000,55.531342 
z"/>
<path fill="#EA3326" opacity="1.000000" stroke="none" 
	d="
M246.468658,274.000000 
	C246.109512,256.301575 246.219025,238.603134 246.867371,220.446960 
	C265.270813,219.659485 283.135406,219.329742 301.000000,219.000000 
	C301.000000,237.260117 301.000000,255.520218 301.000000,274.000000 
	C282.979706,274.000000 264.958496,274.000000 246.468658,274.000000 
z"/>
<path fill="#EB5829" opacity="1.000000" stroke="none" 
	d="
M301.000000,218.531342 
	C283.135406,219.329742 265.270813,219.659485 246.973694,219.989243 
	C246.436249,201.963806 246.331345,183.938354 246.174561,165.446136 
	C264.102692,164.982819 282.082703,164.986252 300.531372,164.994843 
	C301.000000,182.687561 301.000000,200.375122 301.000000,218.531342 
z"/>
<path fill="#000000" opacity="1.000000" stroke="none" 
	d="
M245.531342,1.000000 
	C246.097824,18.709488 246.195663,36.418976 246.373718,54.596428 
	C237.088287,55.292542 227.722656,55.520695 218.101624,55.388176 
	C217.897430,37.330772 217.948639,19.634045 217.999908,1.468657 
	C227.020889,1.000000 236.041794,1.000000 245.531342,1.000000 
z"/>
<path fill="#F2A73B" opacity="1.000000" stroke="none" 
	d="
M28.229061,56.002193 
	C44.499229,56.046001 60.718334,56.030556 76.936974,55.935497 
	C79.057777,55.923069 81.176186,55.501892 83.683151,55.102692 
	C101.805611,54.935349 119.540627,54.935349 138.021820,54.935349 
	C138.021820,72.942177 138.021820,90.471489 138.056107,108.464897 
	C135.854431,109.292702 133.619141,109.968216 131.382385,109.973152 
	C100.010757,110.042404 68.638901,110.001778 37.267208,110.055977 
	C34.810478,110.060226 32.354630,110.571167 29.248480,110.873611 
	C28.598591,110.900604 28.109125,110.977173 28.109125,110.977173 
	C28.116928,93.287346 28.124731,75.597527 28.107267,57.199318 
	C28.082001,56.490932 28.004076,56.010494 28.004076,56.010494 
	C28.004076,56.010494 28.177853,55.918182 28.229061,56.002193 
z"/>
<path fill="#EB5829" opacity="1.000000" stroke="none" 
	d="
M192.698776,165.894501 
	C193.085052,183.841263 193.085052,201.613083 193.085052,219.918854 
	C174.345200,219.918854 156.247864,219.918854 137.696320,219.429718 
	C137.200836,200.955475 137.159576,182.970383 137.118317,164.985275 
	C153.392303,164.989944 169.666397,164.968460 185.940140,165.031067 
	C188.065109,165.039246 190.188416,165.479446 192.698776,165.894501 
z"/>
<path fill="#EB5829" opacity="1.000000" stroke="none" 
	d="
M83.890228,218.575378 
	C65.644699,219.029480 47.461109,219.014221 28.834557,218.993317 
	C28.329954,201.289963 28.268314,183.592285 28.298689,165.432053 
	C44.584541,164.974380 60.778484,164.952560 76.972084,165.016586 
	C79.086159,165.024963 81.198486,165.474503 83.697647,165.895218 
	C84.039841,183.415848 83.996002,200.760941 83.890228,218.575378 
z"/>
<path fill="#000000" opacity="1.000000" stroke="none" 
	d="
M136.647003,164.904892 
	C137.159576,182.970383 137.200836,200.955475 137.244080,219.396301 
	C128.111954,219.852020 118.977844,219.852020 108.953407,219.852020 
	C108.953407,202.050720 108.953407,184.482697 108.896866,166.450317 
	C110.340767,165.584778 111.836708,164.858078 113.342407,164.837265 
	C120.952103,164.732040 128.564346,164.810486 136.647003,164.904892 
z"/>
<path fill="#000000" opacity="1.000000" stroke="none" 
	d="
M192.089111,55.997608 
	C192.015015,72.665512 191.940918,89.333412 191.539825,106.645294 
	C191.137848,108.182770 191.062897,109.076279 190.987946,109.969780 
	C182.093552,109.907761 173.199142,109.845749 164.072556,109.398727 
	C163.840363,91.302162 163.840363,73.590614 163.840363,55.077595 
	C173.200302,55.077595 182.066193,55.077595 191.411621,55.326050 
	C191.891129,55.574509 192.089111,55.997608 192.089111,55.997608 
z"/>
<path fill="#E59E37" opacity="1.000000" stroke="none" 
	d="
M191.194427,110.053650 
	C191.062897,109.076279 191.137848,108.182770 191.498566,107.107590 
	C192.179520,107.731430 192.574692,108.536957 192.988708,109.694443 
	C192.472000,110.076767 191.936447,110.107147 191.194427,110.053650 
z"/>
<path fill="#B15A23" opacity="1.000000" stroke="none" 
	d="
M27.842669,111.059143 
	C28.109125,110.977173 28.598591,110.900604 28.842503,110.946640 
	C28.935535,111.527542 28.784655,112.062416 28.452873,112.809586 
	C28.040054,112.394951 27.808132,111.768028 27.842669,111.059143 
z"/>
<path fill="#E59E37" opacity="1.000000" stroke="none" 
	d="
M192.262177,55.885956 
	C192.089111,55.997608 191.891129,55.574509 191.870712,55.342632 
	C192.040680,55.105701 192.231049,55.100651 192.704834,55.131290 
	C192.834259,55.397060 192.649918,55.599499 192.262177,55.885956 
z"/>
<path fill="#B47C2C" opacity="1.000000" stroke="none" 
	d="
M27.755812,56.059586 
	C28.004076,56.010494 28.082001,56.490932 28.049206,56.732063 
	C27.846790,56.685020 27.677170,56.396851 27.755812,56.059586 
z"/>
</svg>