<?xml version="1.0" encoding="UTF-8"?>
<svg version="1.1" xmlns="http://www.w3.org/2000/svg" width="300" height="273">
<path d="M0 0 C27.39 0 54.78 0 83 0 C83 17.82 83 35.64 83 54 C100.82 54 118.64 54 137 54 C137 71.82 137 89.64 137 108 C145.58 108 154.16 108 163 108 C163 90.18 163 72.36 163 54 C180.82 54 198.64 54 217 54 C217 36.18 217 18.36 217 0 C244.39 0 271.78 0 300 0 C300 90.09 300 180.18 300 273 C272.61 273 245.22 273 217 273 C217 237.36 217 201.72 217 165 C208.75 165 200.5 165 192 165 C192 182.82 192 200.64 192 219 C164.28 219 136.56 219 108 219 C108 201.18 108 183.36 108 165 C99.75 165 91.5 165 83 165 C83 200.64 83 236.28 83 273 C55.61 273 28.22 273 0 273 C0 182.91 0 92.82 0 0 Z " fill="#ED792E" transform="translate(0,0)"/>
<path d="M0 0 C27.39 0 54.78 0 83 0 C83 35.97 83 71.94 83 109 C37.79 109 -7.42 109 -54 109 C-54 90.85 -54 72.7 -54 54 C-36.18 54 -18.36 54 0 54 C0 36.18 0 18.36 0 0 Z " fill="#F0A63A" transform="translate(217,0)"/>
<path d="M0 0 C18.48 0 36.96 0 56 0 C56 17.82 56 35.64 56 54 C73.82 54 91.64 54 110 54 C110 72.15 110 90.3 110 109 C73.7 109 37.4 109 0 109 C0 73.03 0 37.06 0 0 Z " fill="#F0A63A" transform="translate(27,0)"/>
<path d="M0 0 C8.91 0 17.82 0 27 0 C27 90.09 27 180.18 27 273 C18.09 273 9.18 273 0 273 C0 182.91 0 92.82 0 0 Z " fill="#000000" transform="translate(0,0)"/>
<path d="M0 0 C9.57 0 19.14 0 29 0 C29 17.82 29 35.64 29 54 C46.82 54 64.64 54 83 54 C83 72.15 83 90.3 83 109 C55.61 109 28.22 109 0 109 C0 73.03 0 37.06 0 0 Z " fill="#E73225" transform="translate(217,164)"/>
<path d="M0 0 C1.01154144 -0.00311188 2.02308289 -0.00622375 3.0652771 -0.00942993 C4.7290892 -0.00645401 4.7290892 -0.00645401 6.42651367 -0.00341797 C7.57181549 -0.00473724 8.71711731 -0.00605652 9.89712524 -0.00741577 C13.62960487 -0.0093378 17.3620104 -0.00299456 21.09448242 0.00439453 C22.34907257 0.00528076 23.60366272 0.00616699 24.89627075 0.00708008 C42.72160294 0.02199104 60.47499934 0.28646042 78.28198242 1.12939453 C78.28198242 19.27939453 78.28198242 37.42939453 78.28198242 56.12939453 C50.56198242 56.12939453 22.84198242 56.12939453 -5.71801758 56.12939453 C-5.73864258 47.07501953 -5.75926758 38.02064453 -5.78051758 28.69189453 C-5.79417358 24.39847046 -5.79417358 24.39847046 -5.80810547 20.01831055 C-5.8110244 17.76497444 -5.81357301 15.5116378 -5.81567383 13.25830078 C-5.82078979 12.07586792 -5.82590576 10.89343506 -5.83117676 9.6751709 C-5.83129761 8.55864136 -5.83141846 7.44211182 -5.83154297 6.29174805 C-5.83376358 5.31689957 -5.83598419 4.34205109 -5.83827209 3.33766174 C-5.61659259 -0.73310076 -3.57396693 0.00319344 0 0 Z " fill="#E85728" transform="translate(113.718017578125,162.87060546875)"/>
<path d="M0 0 C0.33 0 0.66 0 1 0 C1 35.97 1 71.94 1 109 C19.15 109 37.3 109 56 109 C56 127.15 56 145.3 56 164 C37.52 164 19.04 164 0 164 C0 109.88 0 55.76 0 0 Z " fill="#E73325" transform="translate(27,109)"/>
<path d="M0 0 C9.24 0 18.48 0 28 0 C28 35.97 28 71.94 28 109 C18.76 109 9.52 109 0 109 C0 73.03 0 37.06 0 0 Z " fill="#000000" transform="translate(217,164)"/>
<path d="M0 0 C18.15 0 36.3 0 55 0 C55.020625 8.889375 55.04125 17.77875 55.0625 26.9375 C55.071604 29.74757568 55.08070801 32.55765137 55.09008789 35.45288086 C55.09300683 37.66520134 55.09555544 39.87752235 55.09765625 42.08984375 C55.10277222 43.25068481 55.10788818 44.41152588 55.11315918 45.60754395 C55.11334045 47.25188416 55.11334045 47.25188416 55.11352539 48.92944336 C55.115746 49.88652695 55.11796661 50.84361053 55.12025452 51.82969666 C55 54 55 54 54 55 C52.31198015 55.09353163 50.62004793 55.11744791 48.92944336 55.11352539 C47.83321655 55.11340454 46.73698975 55.11328369 45.60754395 55.11315918 C44.44670288 55.10804321 43.28586182 55.10292725 42.08984375 55.09765625 C41.02930786 55.09664917 39.96877197 55.09564209 38.87609863 55.09460449 C34.89655483 55.08935387 30.91702638 55.07539276 26.9375 55.0625 C18.048125 55.041875 9.15875 55.02125 0 55 C0 36.85 0 18.7 0 0 Z " fill="#F7CF45" transform="translate(28,0)"/>
<path d="M0 0 C7.33845237 -0.02590394 14.6768925 -0.04309155 22.01538086 -0.05493164 C24.49845825 -0.05988087 26.98153287 -0.0666419 29.46459961 -0.07543945 C47.00774093 -0.13592078 64.47120007 0.2552166 82 1 C82 18.82 82 36.64 82 55 C64.18 55 46.36 55 28 55 C28 37.18 28 19.36 28 1 C18.76 1 9.52 1 0 1 C0 0.67 0 0.34 0 0 Z " fill="#EA5828" transform="translate(218,163)"/>
<path d="M0 0 C18.15 0 36.3 0 55 0 C55 17.82 55 35.64 55 54 C36.85 54 18.7 54 0 54 C0 36.18 0 18.36 0 0 Z " fill="#EB5728" transform="translate(28,164)"/>
<path d="M0 0 C17.82 0 35.64 0 54 0 C54 18.15 54 36.3 54 55 C36.18 55 18.36 55 0 55 C0 36.85 0 18.7 0 0 Z " fill="#F7CF45" transform="translate(246,0)"/>
<path d="M0 0 C9.24 0 18.48 0 28 0 C28 18.15 28 36.3 28 55 C18.76 55 9.52 55 0 55 C0 36.85 0 18.7 0 0 Z " fill="#000000" transform="translate(108,164)"/>
<path d="M0 0 C9.24 0 18.48 0 28 0 C28 18.15 28 36.3 28 55 C18.76 55 9.52 55 0 55 C0 36.85 0 18.7 0 0 Z " fill="#020100" transform="translate(163,54)"/>
<path d="M0 0 C9.24 0 18.48 0 28 0 C28 17.82 28 35.64 28 54 C18.76 54 9.52 54 0 54 C0 36.18 0 18.36 0 0 Z " fill="#000000" transform="translate(217,0)"/>
</svg>
