<svg xmlns="http://www.w3.org/2000/svg" width="40" height="40" viewBox="427 171 445 445">
	<g>
		<path d="M 477.31 545.63 C474.34,547.09 469.62,548.39 466.31,548.66 C461.36,549.08 460.02,548.8 457.28,546.82 C455.5,545.55 453.36,542.8 452.53,540.73 C448.77,531.44 451.8,519.33 464.55,492.8 C483.57,453.18 493.35,425.78 497.5,400.43 C499.49,388.28 499.4,383.37 497.12,380.15 C486.08,364.61 481.11,346.98 482.42,328 C482.78,322.77 483.48,316.72 483.98,314.55 C484.83,310.8 484.68,310.37 480.85,306.22 C463.91,287.84 473.71,261.31 497.75,260.48 L 504.03 260.26 L 513.27 251.33 C524.64,240.33 534.33,233.41 548,226.52 C570.64,215.12 590.83,210.12 617.61,209.29 C638.19,208.65 650.65,209.92 668.5,214.49 C695.54,221.41 718.34,233.76 737,251.59 L 745.5 259.71 L 752.76 260.3 C767.58,261.49 776.07,269.52 776.83,283.05 C777.34,291.95 775.12,298.57 769.59,304.68 L 765.33 309.39 L 766.81 315.94 C767.71,319.88 768.28,327.3 768.25,334.5 C768.18,349.62 765.93,358.82 758.89,372.6 L 753.74 382.7 L 755.44 392.1 C756.37,397.27 758.9,406.83 761.07,413.35 C763.23,419.87 765,425.6 765,426.08 C765,426.56 763.54,427.7 761.75,428.61 C759.96,429.53 756.42,432.01 753.87,434.13 L 749.24 437.99 L 748.16 435.24 C745.45,428.36 741.99,413.6 740.89,404.25 C740.23,398.61 739.41,394 739.08,394 C738.74,394 736.76,395.16 734.68,396.57 C729.29,400.24 724.53,400.85 723.04,398.08 C722,396.12 722.9,394.95 733.25,384.72 C743.03,375.05 745.18,372.32 748.77,365 C755.04,352.21 756.51,345.68 756.43,331 C756.36,318.28 755.23,312.05 750.92,300.51 C749,295.38 748.81,295.21 743.16,293.62 C739.97,292.73 735.14,292 732.41,292 L 727.45 292 L 727.84 296.17 C728.84,306.63 723.76,318.34 714.62,326.6 C706.88,333.61 700.26,336.16 688.26,336.77 C677.19,337.33 671.55,335.82 662.22,329.79 C658.77,327.55 655.81,325.9 655.64,326.11 C655.48,326.33 654.76,327.96 654.05,329.75 C652.42,333.85 641.94,343.71 635.72,347 C631.55,349.21 631,349.88 631,352.8 C631,362.63 642.61,371.15 653.91,369.6 C659.79,368.79 665.49,365.32 671.12,359.1 C675.96,353.77 678.69,352.83 681.43,355.57 C683.79,357.93 683.35,360.39 679.72,365.14 C675.18,371.09 668.97,375.59 662.44,377.65 C658.27,378.96 656.43,380.18 654.92,382.64 C651.48,388.2 642.43,395.7 636.95,397.52 C629.63,399.95 617.11,399.27 610.62,396.09 C605.48,393.57 595.52,384.22 594.48,380.94 C594.14,379.87 593.11,379 592.18,379 C588.57,379 577.75,372.84 572.99,368.09 C568.9,363.99 568,362.46 568,359.58 C568,356.01 569.97,354 573.45,354 C574.32,354 577.52,356.65 580.57,359.9 C589.97,369.92 599.58,372.32 609.68,367.16 C614.37,364.77 616.47,362.52 618.46,357.75 C621.11,351.41 620.57,349.8 614.88,347 C607.96,343.6 598.64,334.96 595.99,329.48 L 593.81 324.98 L 589.99 328.01 C587.89,329.67 583.55,332.26 580.34,333.77 C575.04,336.25 573.44,336.5 563,336.5 C552.3,336.5 551.09,336.3 545.65,333.59 C537.12,329.33 529.65,322.07 525.82,314.28 C523.02,308.6 522.58,306.67 522.55,299.74 L 522.5 291.75 L 515.5 292.34 C503.68,293.32 501.72,294.34 499.16,300.86 C493.96,314.13 492.4,334.91 495.63,347.94 C501.95,373.42 525.05,396.04 558.75,409.75 C563.06,411.51 564,412.33 564,414.32 C564,417.91 561.69,419.35 557.26,418.53 C550.88,417.35 534.94,410.21 525.87,404.47 C521.12,401.46 517.02,399 516.76,399 C516.49,399 515.96,402.94 515.57,407.75 C515.19,412.56 513.76,423.02 512.39,431 C503.88,480.71 505.18,498.7 518.35,513.66 C520.55,516.16 521.89,518.48 521.39,518.94 C520.9,519.39 518.7,520.32 516.5,521.02 C509,523.37 501.51,527.79 492,535.44 C486.77,539.65 480.16,544.23 477.31,545.63 ZM 742.7 572.93 C725.71,578.34 722.67,578.22 707,571.52 C691.39,564.86 670.04,559.17 650.57,556.48 C641.85,555.28 638.02,555.12 636.33,555.9 C631.96,557.89 620.88,560 614.83,560 C605.43,560 592,555.96 592,553.14 C592,551.17 598.4,549.69 610.12,548.95 C620.15,548.32 624.66,547.51 632.06,545.03 C650.89,538.72 663.42,530.03 662.81,523.69 L 662.5 520.5 L 653.38 520.8 C646.05,521.04 644.14,520.81 643.69,519.62 C642.85,517.44 644.72,516.47 652.39,515.12 C663.84,513.09 669,509.54 669,503.69 C669,499.25 667.09,498.7 654.76,499.6 C648.57,500.06 643.1,500.44 642.61,500.46 C642.12,500.48 641.22,499.7 640.61,498.72 C639.06,496.23 640.51,495.54 650.49,494.06 C659.72,492.69 662.7,490.77 661.49,486.97 C659.71,481.35 640.2,478.21 626.74,481.38 C616.45,483.81 610.79,487.22 600.07,497.48 C590.3,506.83 585.22,510 580,510 C576.92,510 574.5,507.75 575.31,505.64 C575.6,504.88 577.92,503.25 580.46,502.02 C583.06,500.76 586.91,497.58 589.29,494.72 C598.47,483.67 604.34,478.1 609.95,475.11 C616.65,471.53 615.69,474.37 619.05,448.5 C620.2,439.7 621.52,432.11 621.99,431.63 C622.46,431.15 625.69,430.46 629.17,430.1 C636.14,429.37 638,428.6 638,426.44 C638,425.47 639.11,425 641.43,425 C643.89,425 645.41,424.3 646.82,422.5 C648.88,419.89 651.86,419.26 653.65,421.05 C654.23,421.63 658.71,422.95 663.6,423.97 C668.5,424.99 676.1,427.03 680.5,428.49 C692.25,432.4 715.27,444.09 724.81,450.99 C729.39,454.29 733.56,457 734.09,457 C734.62,457 734.41,455.76 733.62,454.25 C729.48,446.28 717.94,435.38 707.5,429.57 C699.07,424.88 683.54,419.27 675.12,417.88 C667.08,416.55 664.72,414.85 667.32,412.25 C668.8,410.77 669.76,410.74 676.71,411.91 C694.86,414.95 715.88,424.29 726.27,433.91 C733.01,440.15 739.1,447.95 741.71,453.69 C742.66,455.79 743.53,457.65 743.64,457.84 C743.75,458.02 747.09,454.75 751.07,450.57 C766.85,433.95 787.92,425.59 815.97,424.8 L 826.45 424.5 L 826.98 427.5 C827.44,430.12 827.98,430.54 831.21,430.81 C834.87,431.11 836.97,433.62 835.53,435.95 C834.77,437.18 839.46,439.62 844.36,440.54 C846.45,440.93 848.4,441.89 848.7,442.67 C849.29,444.19 849.22,444.53 843.16,471.33 L 839.13 489.15 L 842.46 493.51 C847.94,500.7 849.51,506.11 849.41,517.5 C849.32,528.99 847.24,535.76 840.96,545 C837,550.84 834.17,553.29 826.97,557.1 C823.07,559.17 820.96,559.5 810.35,559.69 C792.15,560.01 769.09,564.52 742.7,572.93 ZM 494 286.05 C494,288.38 494.29,288.42 497.84,286.58 C501.55,284.66 514.83,282 520.71,282 C525.3,282 525.62,281.81 528.34,277.5 C532.05,271.62 538.16,266.38 545,263.2 C549.58,261.07 552.35,260.57 561.5,260.23 C573.93,259.77 579.83,261.32 588.74,267.38 C592.73,270.09 600.85,280.11 602.14,283.91 C602.38,284.6 604.2,284.43 607.5,283.41 C610.25,282.56 616.78,281.61 622,281.3 C631.11,280.77 633.12,281.04 645.5,284.5 C647.1,284.95 647.9,284.22 649.49,280.88 C652.47,274.58 659.17,267.72 665.75,264.21 C684.74,254.09 710.73,260.22 721.58,277.37 C724.34,281.73 724.35,281.74 731.42,282.28 C735.31,282.57 741.3,283.39 744.72,284.1 C748.14,284.81 751.26,285.07 751.65,284.68 C752.04,284.3 751.04,282.61 749.44,280.94 C747.01,278.41 746.78,277.75 748.02,276.97 C750.17,275.6 753.57,275.79 757.65,277.5 C762.23,279.41 762.28,279.4 760.97,276.95 C758.91,273.1 754,271.01 747,270.99 L 740.5 270.97 L 730.79 261.57 C714.87,246.18 696.1,234.95 675,228.21 C629.67,213.73 578.32,219.5 541.83,243.17 C533.17,248.79 520.62,259.56 514.59,266.56 C509.84,272.05 509.77,272.09 505.41,271.43 C499.12,270.49 494.47,271.65 490.48,275.15 C485.96,279.12 486.05,280.27 490.71,277.89 C494.61,275.9 498.63,275.48 500.77,276.83 C501.67,277.41 500.89,278.56 498.02,280.87 C495.8,282.65 494,284.97 494,286.05 ZM 676.35 326.62 C678.72,327.38 683.73,327.86 688,327.72 C705.32,327.14 718.01,314.57 717.99,298 C717.97,280.97 704.96,269 686.5,269 C673.6,269 664,274.03 658.29,283.77 C654.84,289.66 653.91,301.45 656.43,307.51 C660.23,316.63 667.71,323.81 676.35,326.62 ZM 551.36 325.92 C559.37,329 569.02,328.7 576.5,325.15 C588.95,319.22 596.04,307.48 594.59,295.17 C593.32,284.38 588.09,276.87 578.45,272 C574.15,269.83 572.19,269.5 563.5,269.51 C551.79,269.51 547.05,271.21 540.3,277.8 C533.55,284.39 532.5,287.12 532.5,298 C532.51,305.88 532.88,308.21 534.71,311.63 C537.66,317.15 545.05,323.49 551.36,325.92 ZM 710 561.32 C710.5,561.54 710.96,561.75 711.37,561.94 C712.61,562.53 713.45,562.92 714.08,562.71 C715.59,562.21 715.98,558.31 718.03,545.5 C720.46,530.36 730.83,469.51 731.52,466.34 C731.9,464.61 730.67,463.2 725.25,459.19 C710.98,448.62 692.11,439.24 674.5,433.96 C661.64,430.1 652.24,428.6 648,429.71 L 644.5 430.64 L 649.25 432.32 C651.86,433.24 656.03,434.71 658.5,435.58 C660.97,436.45 663,437.59 663,438.11 C663,440.25 659.4,440.13 651.18,437.71 C644.68,435.8 641.18,435.29 637.25,435.7 C634.36,436.01 632,436.55 632,436.92 C632,437.29 634.14,438.15 636.75,438.85 C639.36,439.55 650.5,443.52 661.5,447.68 C672.5,451.83 689.83,458.37 700,462.19 C710.17,466.02 718.8,469.45 719.17,469.83 C719.53,470.2 719.2,474.1 718.42,478.5 C717.13,485.83 715.78,494.49 708.42,542.88 C707.05,551.89 706.06,559.39 706.22,559.54 C706.37,559.68 708.08,560.49 710,561.32 ZM 798.42 545.12 C803.06,547.32 805.95,548 810.63,548 C822,548 829.55,542.68 835.02,530.8 C837.89,524.59 838.37,522.46 838.35,516.02 C838.33,507.89 836.36,502.52 831.83,498.3 C823.7,490.71 801.47,488.29 797.38,494.55 C794.84,498.41 797.34,501.27 805.17,503.46 C813.23,505.71 817,507.65 817,509.56 C817,512.16 814.24,512.29 805.97,510.05 C795.35,507.19 789.97,507.55 788.2,511.25 C785.63,516.64 789.98,521.43 801.07,525.45 C805.84,527.18 807.5,528.26 807.5,529.64 C807.5,531.91 802.94,532.06 795.9,530.01 C789.87,528.25 788,529.03 788,533.33 C788,538.06 791.24,541.72 798.42,545.12 ZM 734.41 562.16 L 733.88 564.82 L 737.87 563.65 C740.07,563 742.12,562.21 742.44,561.89 C742.99,561.35 753.3,515.81 759.99,484.43 L 763.2 469.35 L 779.35 462.98 C798.12,455.58 817.34,449.09 828,446.54 C834.93,444.88 839.24,443 836.1,443 C835.39,443 833.53,442.09 831.97,440.98 L 829.12 438.95 L 815.93 440.97 C796.67,443.93 772.13,452.57 758.88,461.08 C754.51,463.88 754.09,464.53 752.6,470.79 C749.22,485.04 743,515.47 739.06,537 C736.8,549.38 734.71,560.7 734.41,562.16 ZM 693.58 312.1 C688.61,314.36 683.5,314.45 679.5,312.34 C669.88,307.26 666.61,298.61 671.04,289.92 C676.07,280.07 690.22,278.24 698.78,286.34 C706.97,294.1 704.32,307.22 693.58,312.1 ZM 572.41 311.19 C567.6,314 561.2,314.39 556.46,312.18 C548.32,308.37 544.57,300.7 546.96,292.74 C552.2,275.26 580.03,278.85 579.98,297 C579.96,302.54 576.68,308.7 572.41,311.19 ZM 603.42 308.15 L 602.88 310.81 L 607.11 309.35 C613.9,307.01 629.28,306.54 638,308.4 L 638.01 308.4 C644.5,309.78 646.34,310.18 646.62,309.68 C646.74,309.48 646.61,309.14 646.43,308.67 L 646.43 308.67 C646.15,307.94 645.6,304.46 645.21,300.93 C644.58,295.23 644.19,294.38 641.71,293.19 C634.07,289.53 615.66,289.7 607.64,293.5 C604.77,294.86 604.48,295.45 604.23,300.25 C604.08,303.14 603.72,306.69 603.42,308.15 ZM 615.26 387.03 C623.63,390.83 634.77,389.15 641.26,383.1 L 645.26 379.36 L 639.24 377.17 C635.62,375.85 631.6,373.41 629.19,371.07 L 625.18 367.17 L 620.62 371.54 C617.88,374.16 614.36,376.38 611.79,377.12 C609.43,377.79 607.11,378.68 606.63,379.09 C605.35,380.2 610.36,384.81 615.26,387.03 ZM 757.05 454.39 C755.16,456.37 753.89,458 754.25,458 C754.6,458 757.77,456.19 761.29,453.98 C773.24,446.49 791.62,440.35 813.27,436.61 C823.82,434.79 824.84,434.28 821.97,432.27 C817.36,429.03 792.1,433.37 777.79,439.85 C770.39,443.19 762.36,448.82 757.05,454.39 ZM 730.43 351.43 C729.56,352.29 728.78,352.97 728.68,352.93 C719.66,349.24 716.79,348.69 705.74,348.54 C692.98,348.38 690.17,347.4 693.33,344.24 C696.25,341.32 712.91,341.22 722.51,344.07 C730.74,346.51 733.13,348.73 730.43,351.43 ZM 528 350.8 C524.98,352.01 522.51,352.98 522.5,352.97 C522.5,352.95 521.71,352.48 520.75,351.92 C513.58,347.75 530.05,341.55 546.69,342.16 C556.45,342.52 559.3,343.71 557.45,346.65 C556.64,347.93 554.24,348.27 544.97,348.42 C535.81,348.57 532.39,349.05 528,350.8 ZM 722.56 366.81 C721.84,369.06 718.62,369.81 717.49,367.98 C716.25,365.98 707.26,362.13 700.94,360.9 C692.97,359.35 690.81,357.76 693.28,355.3 C694.78,353.79 695.75,353.72 701.43,354.7 C708.27,355.87 716.93,359.42 720.88,362.67 C722.64,364.12 723.07,365.19 722.56,366.81 ZM 537.05 365.56 L 536.91 365.63 C531.84,368.32 530.31,369.14 529.29,368.71 C528.84,368.53 528.5,368.1 527.98,367.48 C526.24,365.38 528.89,362.59 536.13,358.94 C542.1,355.92 553.68,353.28 556.38,354.32 C558.84,355.26 558.4,358.87 555.75,359.47 C554.51,359.75 551.26,360.46 548.52,361.05 C545.78,361.63 540.62,363.66 537.05,365.56 ZM 619.25 320.78 C620.49,321.38 622.76,321.9 624.3,321.93 C627.81,322.02 633.26,319.28 632.74,317.69 C632.3,316.38 623,315.53 619.3,316.46 C616.37,317.2 616.34,319.38 619.25,320.78 ZM 561.15 295.4 C564.75,297.91 568.69,294.88 567.58,290.44 C567.11,288.58 566.3,288 564.18,288 C559.04,288 557.16,292.6 561.15,295.4 ZM 683.09 294.61 C684.68,296.52 688.97,296.02 690.39,293.75 C692.11,291.01 689.95,288.5 685.89,288.5 C683.11,288.5 682.44,288.92 682.17,290.81 C681.99,292.07 682.4,293.78 683.09,294.61 Z" fill="currentColor" />
		</g>
</svg>